<svg xmlns="http://www.w3.org/2000/svg" xmlns:xlink="http://www.w3.org/1999/xlink" version="1.1" x="0px" y="0px" width="100px" height="100px" viewBox="0 0 100 100" enable-background="new 0 0 100 100" xml:space="preserve">
<path d="M79.392,80.221c-0.132,8.007-7.632,16.438-19.314,17.412c-10.477,0.873-17.199-3.342-19.543-8.984  c1.121,7.016,8.038,12.824,21.576,11.019C74.356,98.034,80.819,88.271,79.392,80.221z"/>
<path d="M77.62,79.708c0,0-0.677-8.835-0.677-10.806c0-3.742-2.914-8.058-8.189-10.311l0.019-0.003l-1.128-0.438  c-0.01-0.003-0.019-0.009-0.027-0.012l-8.919-2.485l-0.319-2.002c7.164-6.616,16.444-11.955,16.614-19.157  c0.085-3.562-0.063-8.115-0.221-12.204c-4.46,5.694-15.871,10.85-29.527,11.185c-8.514,0.208-14.948-1.662-18.954-4.422  c1.349,5.318,2.993,10.705,3.699,12.73c1.949,5.591,14.005,8.748,22.376,12.809l0.309,2.035l-7.928,5.458l0.004-0.001  c-3.867,2.942-6.116,6.758-6.116,10.291c0,2.924,2.525,11.24,3.338,13.841c0.064,0.221,0.129,0.44,0.207,0.658  c0.028,0.086,0.043,0.133,0.043,0.133s0.009-0.002,0.009-0.002c1.8,4.834,7.002,8.845,15.217,8.845  c13.644,0,20.17-10.173,20.17-15.509c0-0.209-0.02-0.414-0.031-0.621C77.607,79.714,77.62,79.708,77.62,79.708z M53.991,88.301  c-5.663-2.595-5.735-7.26-2.972-10.905h-0.001l5.773-7.916l-2.604-16.348c0,0,0,0-11.794-4.984  c-2.663-1.125-4.613-2.162-4.878-3.919c-0.559-3.716,6.074-7.797,14.816-9.114c8.743-1.317,16.284,0.627,16.844,4.344  c0.225,1.493,0.111,2.248-2.483,4.448c-10.496,8.897-10.496,8.897-10.496,8.897L58.77,68.97l0.099-0.021l7.301,4.808  c0.521,0.267,1.005,0.589,1.453,0.956l0.125,0.083L67.725,74.8c0.947,0.807,1.707,1.837,2.145,3.152  C72.16,84.826,61.677,91.822,53.991,88.301z"/>
<path d="M46.354,30.68c17.768-1.058,30.715-10.467,30.426-16.272l-0.385-3.677l-0.021,0.002C75.763,5.559,67.61,0,53.212,0  C33.889,0,20.413,8.333,20.413,16.103l0.021,0.185l0.355,3.501c0.001,0.019,0.004,0.037,0.005,0.056l0.015,0.14l0.006,0  C21.515,25.085,31.995,31.534,46.354,30.68z"/>
</svg>